<svg width="24" height="24" viewBox="0 0 24 24" fill="none" xmlns="http://www.w3.org/2000/svg">
<g id="Abstract to 1">
<path id="Star 1" d="M19.4704 14.645C19.477 14.6128 19.5231 14.6128 19.5297 14.645C19.8719 16.3195 21.1805 17.6281 22.855 17.9704C22.8873 17.977 22.8873 18.0231 22.855 18.0297C21.1805 18.3719 19.8719 19.6805 19.5297 21.355C19.5231 21.3873 19.477 21.3873 19.4704 21.355C19.1281 19.6805 17.8195 18.3719 16.145 18.0297C16.1128 18.0231 16.1128 17.977 16.145 17.9704C17.8195 17.6281 19.1281 16.3195 19.4704 14.645Z" stroke="#0BD2B4" stroke-width="1.5"/>
<path id="Star 2" d="M14.7187 10.3761C14.7813 10.07 15.2187 10.07 15.2812 10.3761C15.4194 11.0522 15.9478 11.5805 16.6239 11.7187C16.93 11.7813 16.93 12.2187 16.6239 12.2812C15.9478 12.4194 15.4194 12.9478 15.2812 13.6239C15.2187 13.93 14.7813 13.93 14.7187 13.6239C14.5805 12.9478 14.0522 12.4194 13.3761 12.2812C13.07 12.2187 13.07 11.7813 13.3761 11.7187C14.0522 11.5805 14.5805 11.0522 14.7187 10.3761Z" fill="#0BD2B4"/>
<path id="Rectangle 40205" d="M21 12V5.4C21 4.07452 19.9255 3 18.6 3H5.4C4.07452 3 3 4.07452 3 5.4V20.1315C3 20.9302 3.89015 21.4066 4.5547 20.9635L6.92571 19.3829C7.2714 19.1524 7.72357 19.1597 8.06165 19.4012L10.4044 21.0745C10.759 21.3279 11.2369 21.3223 11.5856 21.0608L13 20" stroke="#141413" stroke-width="2.004" stroke-linecap="round"/>
<path id="Vector 723" d="M7 8L17 8" stroke="#141413" stroke-width="2.004" stroke-linecap="round"/>
<path id="Vector 724" d="M7 12L10 12" stroke="#141413" stroke-width="2.004" stroke-linecap="round"/>
</g>
</svg>
