<svg width="20" height="20" viewBox="0 0 20 20" fill="none" xmlns="http://www.w3.org/2000/svg">
<g id="quote">
<path id="Vector" d="M8.78054 4.4375L8.1626 3.48682C3.88452 6.36263 1.50781 9.85639 1.50781 12.7322C1.50781 15.513 3.55178 16.8201 5.28678 16.8201C7.47335 16.8201 9.01821 14.9663 9.01821 13.0174C9.01821 11.3775 7.97246 9.97523 6.5702 9.45235C6.16616 9.30975 5.78589 9.19092 5.78589 8.50167C5.78589 7.62229 6.4276 6.3151 8.78054 4.4375ZM18.2161 4.4375L17.5981 3.48682C13.3676 6.36263 10.9433 9.85639 10.9433 12.7322C10.9433 15.513 13.0348 16.8201 14.7698 16.8201C16.9802 16.8201 18.5488 14.9663 18.5488 13.0174C18.5488 11.3775 17.4793 9.97523 16.0295 9.45235C15.6255 9.30975 15.269 9.19092 15.269 8.50167C15.269 7.62229 15.9344 6.3151 18.2161 4.4375Z" fill="#DADADA"/>
</g>
</svg>
