<svg width="20" height="20" viewBox="0 0 20 20" fill="none" xmlns="http://www.w3.org/2000/svg">
<path d="M15.2102 1.56661C15.2709 1.38411 15.5291 1.38411 15.5898 1.56661L15.9325 2.59706C16.1315 3.19523 16.6009 3.66458 17.199 3.86355L18.2295 4.20632C18.412 4.26702 18.412 4.52516 18.2295 4.58587L17.199 4.92864C16.6009 5.12761 16.1315 5.59696 15.9325 6.19513L15.5898 7.22557C15.5291 7.40807 15.2709 7.40807 15.2102 7.22558L14.8675 6.19513C14.6685 5.59696 14.1991 5.12761 13.601 4.92864L12.5705 4.58587C12.388 4.52516 12.388 4.26702 12.5705 4.20632L13.601 3.86355C14.1991 3.66458 14.6685 3.19523 14.8675 2.59706L15.2102 1.56661Z" fill="#34322D"/>
<path d="M8.89774 6.45799L9.5 4.64742L10.1023 6.45799C10.643 8.08352 11.9184 9.35898 13.544 9.89969L15.3545 10.502L13.544 11.1042C11.9184 11.6449 10.643 12.9204 10.1023 14.5459L9.5 16.3565L8.89774 14.5459C8.35702 12.9204 7.08157 11.6449 5.45604 11.1042L3.64547 10.502L5.45604 9.89969C7.08156 9.35898 8.35702 8.08352 8.89774 6.45799Z" stroke="#34322D" stroke-width="1.67"/>
</svg>
