<svg width="16" height="16" viewBox="0 0 16 16" fill="none" xmlns="http://www.w3.org/2000/svg">
<g clip-path="url(#clip0_333_5045)">
<path d="M5.99992 4.00004L1.55846 5.68637C1.49412 5.70844 1.43807 5.74965 1.39784 5.80449C1.3576 5.85932 1.3351 5.92515 1.33336 5.99315C1.33162 6.06114 1.35072 6.12803 1.38809 6.18486C1.42547 6.24168 1.47933 6.28571 1.54246 6.31104L6.82912 8.43104C6.99625 8.49795 7.14809 8.59801 7.2755 8.72519C7.40291 8.85237 7.50324 9.00404 7.57046 9.17104L9.69046 14.459C9.71578 14.5222 9.75981 14.576 9.81664 14.6134C9.87346 14.6508 9.94036 14.6699 10.0083 14.6681C10.0763 14.6664 10.1422 14.6439 10.197 14.6037C10.2518 14.5634 10.2931 14.5074 10.3151 14.443L11.8768 9.87817M8.99992 3.00004L14.2251 1.35304C14.2842 1.3317 14.3481 1.32763 14.4094 1.3413C14.4707 1.35497 14.5269 1.38581 14.5713 1.43022C14.6157 1.47463 14.6465 1.53077 14.6602 1.59208C14.6739 1.65338 14.6698 1.7173 14.6485 1.77637L12.9999 6.66671M7.33327 8.6667L8.66661 7.33336M14.5693 1.43231L10.9999 5.00169M3.34121 1.3413L14.6666 12.6667" stroke="#34322D" stroke-width="1.33" stroke-linecap="round" stroke-linejoin="round"/>
</g>
<defs>
<clipPath id="clip0_333_5045">
<rect width="16" height="16" fill="white"/>
</clipPath>
</defs>
</svg>
